<svg width="512" height="196" viewBox="0 0 512 196" fill="none" xmlns="http://www.w3.org/2000/svg">
<path d="M72.297 121.52V140.24L16.857 113.024V97.76L72.297 70.688V89.408L36.009 105.536L72.297 121.52ZM432.492 51.68L398.292 154.88H383.652L417.852 51.68H432.492ZM440.115 140.24V121.52L476.403 105.536L440.115 89.408V70.688L495.555 97.76V113.024L440.115 140.24Z" fill="#17B3D5"/>
<path d="M134.937 112.88H150.417C150.417 123.76 147.697 132.12 142.257 137.96C136.817 143.8 129.137 146.72 119.217 146.72C97.3773 146.72 86.4573 133.88 86.4573 108.2V101C86.4573 80.76 92.0573 68.08 103.257 62.96C107.657 60.88 112.977 59.84 119.217 59.84C128.337 59.84 135.737 62.36 141.417 67.4C147.177 72.36 150.057 79.56 150.057 89H134.457C133.577 84.28 132.017 80.72 129.777 78.32C127.537 75.92 124.017 74.72 119.217 74.72C113.617 74.72 109.457 76.48 106.737 80C104.817 82.48 103.697 86.72 103.377 92.72C103.217 94.64 103.137 97.24 103.137 100.52V107.96C103.137 117.16 104.417 123.44 106.977 126.8C109.617 130.16 113.697 131.84 119.217 131.84C124.817 131.84 128.657 130.32 130.737 127.28C132.897 124.16 134.297 119.36 134.937 112.88ZM227.268 99.32V105.8C227.268 120.12 224.548 130.52 219.108 137C213.748 143.48 205.108 146.72 193.188 146.72C181.268 146.72 172.628 143.48 167.268 137C161.988 130.52 159.348 120 159.348 105.44V99.2C159.348 85.92 162.028 76.04 167.388 69.56C172.828 63.08 181.388 59.84 193.068 59.84C204.828 59.84 213.468 63.12 218.988 69.68C224.508 76.24 227.268 86.12 227.268 99.32ZM210.588 105.44V101C210.588 93.32 209.628 87.2 207.708 82.64C205.468 77.36 200.668 74.72 193.308 74.72C185.868 74.72 181.028 77.36 178.788 82.64C176.948 86.96 176.028 93.08 176.028 101V105.44C176.028 115.76 177.468 122.72 180.348 126.32C181.468 127.84 183.108 129.16 185.268 130.28C187.508 131.32 190.148 131.84 193.188 131.84C196.308 131.84 198.948 131.32 201.108 130.28C203.268 129.24 204.948 127.96 206.148 126.44C207.348 124.92 208.268 122.92 208.908 120.44C210.028 116.52 210.588 111.52 210.588 105.44ZM306.295 102.92L306.415 112.16C306.095 118 305.375 122.92 304.255 126.92C303.135 130.92 300.935 134.56 297.655 137.84C292.215 143.28 284.295 146 273.895 146C261.655 146 253.255 144.4 248.695 141.2C244.135 137.92 241.855 132.04 241.855 123.56V60.56H275.095C284.695 60.56 292.215 63.28 297.655 68.72C302.055 73.12 304.655 78.48 305.455 84.8C306.015 89.28 306.295 95.32 306.295 102.92ZM286.015 125.84C287.535 124 288.495 121.48 288.895 118.28C289.375 115 289.615 109.92 289.615 103.04C289.615 96.16 289.375 91.2 288.895 88.16C288.495 85.04 287.535 82.56 286.015 80.72C283.135 77.2 278.975 75.44 273.535 75.44H258.535V122.72C258.535 125.92 259.615 128.12 261.775 129.32C263.935 130.52 267.775 131.12 273.295 131.12C278.895 131.12 283.135 129.36 286.015 125.84ZM377.236 146H346.996C337.396 146 330.636 144.36 326.716 141.08C322.876 137.72 320.956 131.84 320.956 123.44V60.56H377.236V75.44H337.636V95.48H365.356L364.156 110.36H337.636V122.24C337.636 125.6 338.396 127.92 339.916 129.2C341.436 130.48 344.196 131.12 348.196 131.12H377.236V146Z" fill="#17D59C"/>
</svg>
