<svg width="192" height="192" viewBox="0 0 192 192" fill="none" xmlns="http://www.w3.org/2000/svg">
<path d="M40 104V176H24V104H40Z" fill="#17D59C"/>
<path d="M184 104V120H168V176H152V120H136V104H184Z" fill="#17D59C"/>
<path d="M96 88C107.209 88.0597 118.18 91.2428 127.68 97.192L139.256 85.592C126.551 76.7758 111.464 72.0351 96 72C80.7417 72.03 65.8565 76.7191 53.336 85.44L64.928 97.064C74.2352 91.1993 84.9993 88.0593 96 88V88Z" fill="#17B3D5"/>
<path d="M96 56C115.699 56.0409 134.864 62.4068 150.672 74.16L162.088 62.72C143.191 48.0208 119.941 40.0276 96 40C72.267 40.0301 49.2218 47.9746 30.512 62.576L41.92 74.016C57.5436 62.3578 76.5062 56.0406 96 56V56Z" fill="#17B3D5"/>
<path d="M96 24C124.185 24.0043 151.524 33.6282 173.496 51.28L184.912 39.848C159.966 19.2829 128.65 8.025 96.3204 8.00019C63.9908 7.97539 32.6571 19.1853 7.67999 39.712L19.096 51.144C40.883 33.5869 68.0192 24.0089 96 24V24Z" fill="#17B3D5"/>
<path d="M96 104C88.8799 104 81.9196 106.111 75.9995 110.067C70.0793 114.023 65.4651 119.645 62.7403 126.223C60.0156 132.802 59.3027 140.04 60.6917 147.023C62.0808 154.007 65.5095 160.421 70.5442 165.456C75.5788 170.491 81.9934 173.919 88.9767 175.308C95.9601 176.697 103.198 175.984 109.777 173.26C116.355 170.535 121.977 165.921 125.933 160.001C129.889 154.08 132 147.12 132 140C132 130.452 128.207 121.295 121.456 114.544C114.705 107.793 105.548 104 96 104V104ZM96 160C92.0444 160 88.1776 158.827 84.8886 156.629C81.5996 154.432 79.0362 151.308 77.5224 147.654C76.0087 143.999 75.6126 139.978 76.3843 136.098C77.156 132.219 79.0608 128.655 81.8579 125.858C84.6549 123.061 88.2186 121.156 92.0982 120.384C95.9778 119.613 99.9991 120.009 103.654 121.522C107.308 123.036 110.432 125.6 112.629 128.889C114.827 132.178 116 136.044 116 140C116 145.304 113.893 150.391 110.142 154.142C106.391 157.893 101.304 160 96 160V160Z" fill="#17D59C"/>
</svg>
