<svg width="256" height="256" viewBox="0 0 256 256" fill="none" xmlns="http://www.w3.org/2000/svg">
<path d="M51.12 62.3573H74.2026C74.2026 62.3573 87.1733 62.5653 87.1733 49.824V28.752C87.1733 28.752 89.1413 16 63.6586 16C39.264 16 40.784 26.576 40.784 26.576L40.816 37.536H64.0853V40.8267H31.5733C31.5733 40.8267 15.9626 39.056 15.9626 63.664C15.9626 88.272 29.5893 87.3973 29.5893 87.3973H37.7173V75.9787C37.7173 75.9787 37.2746 62.3573 51.12 62.3573ZM50.8213 31.744C49.7109 31.744 48.646 31.3029 47.8609 30.5178C47.0757 29.7326 46.6346 28.6677 46.6346 27.5573C46.6346 26.447 47.0757 25.3821 47.8609 24.5969C48.646 23.8118 49.7109 23.3707 50.8213 23.3707C51.9317 23.3707 52.9966 23.8118 53.7817 24.5969C54.5669 25.3821 55.008 26.447 55.008 27.5573C55.008 28.6677 54.5669 29.7326 53.7817 30.5178C52.9966 31.3029 51.9317 31.744 50.8213 31.744Z" fill="#17D59C"/>
<path d="M98.4107 40.1707H90.2827V51.5893C90.2827 51.5893 90.7253 65.2107 76.88 65.2107H53.7973C53.7973 65.2107 40.8267 64.9973 40.8267 77.744V98.816C40.8267 98.816 38.8587 111.568 64.3413 111.568C88.7307 111.568 87.2107 100.992 87.2107 100.992L87.1787 90.0373H63.9093V86.7467H96.4267C96.4267 86.7467 112.037 88.5173 112.037 63.9093C112.037 39.3013 98.4107 40.1707 98.4107 40.1707V40.1707ZM77.1787 95.8293C78.289 95.8293 79.3539 96.2704 80.1391 97.0556C80.9242 97.8407 81.3653 98.9056 81.3653 100.016C81.3653 101.126 80.9242 102.191 80.1391 102.976C79.3539 103.762 78.289 104.203 77.1787 104.203C76.0683 104.203 75.0034 103.762 74.2182 102.976C73.4331 102.191 72.992 101.126 72.992 100.016C72.992 98.9056 73.4331 97.8407 74.2182 97.0556C75.0034 96.2704 76.0683 95.8293 77.1787 95.8293V95.8293Z" fill="#17D59C"/>
<path d="M144 16H240V112H144V16ZM232.133 89.104C231.435 84.7253 228.581 81.0453 220.123 77.6107C217.179 76.2293 213.909 75.2747 212.928 73.056C212.565 71.7333 212.512 71.0187 212.747 70.2347C213.349 67.6533 216.411 66.88 218.811 67.5947C220.373 68.0747 221.813 69.2747 222.715 71.2C226.848 68.496 226.848 68.496 229.733 66.6987C228.651 65.024 228.112 64.2933 227.392 63.5733C224.869 60.7573 221.509 59.3173 216.053 59.44L213.237 59.7973C210.533 60.4587 207.952 61.904 206.395 63.8187C201.835 68.9813 203.152 77.9787 208.672 81.7067C214.128 85.7867 222.117 86.6827 223.136 90.5227C224.096 95.2053 219.659 96.704 215.269 96.1653C212.032 95.44 210.229 93.824 208.251 90.8213L200.933 95.024C201.771 96.9387 202.731 97.7813 204.171 99.4613C211.131 106.48 228.533 106.123 231.653 95.44C231.765 95.0827 232.613 92.624 231.952 88.8427L232.133 89.104V89.104ZM196.203 60.1227H187.211C187.211 67.872 187.173 75.5787 187.173 83.344C187.173 88.272 187.424 92.7947 186.619 94.1867C185.301 96.944 181.893 96.592 180.352 96.1013C178.768 95.3227 177.963 94.24 177.029 92.6827C176.779 92.2667 176.592 91.904 176.523 91.904L169.227 96.4053C170.448 98.928 172.229 101.093 174.528 102.469C177.947 104.512 182.539 105.173 187.349 104.096C190.485 103.189 193.189 101.328 194.592 98.448C196.64 94.7307 196.203 90.1653 196.187 85.0667C196.229 76.848 196.187 68.624 196.187 60.3467L196.203 60.1227Z" fill="#17B3D5"/>
<g clip-path="url(#clip0)">
<path d="M235.753 154.338L195.241 131.008C192.907 129.664 189.088 129.664 186.754 131.008L146.243 154.338C143.909 155.682 142 158.982 142 161.67V208.33C142.182 211.461 143.785 214.054 146.243 215.662L186.755 238.992C189.088 240.336 192.907 240.336 195.241 238.992L235.753 215.662C238.391 213.912 239.892 211.277 239.996 208.33V161.67C239.901 158.841 238.203 155.989 235.753 154.338H235.753ZM158.333 185C158.141 153.184 200.862 139.135 219.286 168.698L205.149 176.858C196.615 162.779 175.426 167.813 174.665 185C174.894 200.84 195.72 208.199 205.15 193.141L219.287 201.301C203.05 229.416 159.151 219.3 158.333 185H158.333ZM223.663 186.81H220.033V190.431H216.405V186.81H212.775V183.19H216.405V179.57H220.034V183.19H223.663V186.81H223.663ZM237.274 186.81H233.644V190.431H230.015V186.81H226.386V183.19H230.015V179.57H233.644V183.19H237.274V186.81H237.274Z" fill="#17D59C"/>
</g>
<path d="M102.457 208.184C103.544 208.619 104.48 209.361 105.152 210.318C105.756 211.217 106.18 212.302 106.446 213.574C106.59 214.322 106.762 215.012 106.949 215.659C107.302 216.871 107.832 218.024 108.523 219.08C108.861 219.605 109.314 220.18 109.875 220.819C110.356 221.344 110.787 222.02 111.168 222.839C111.52 223.576 111.708 224.38 111.722 225.197C111.75 225.981 111.514 226.753 111.053 227.389C110.584 228.006 110.013 228.538 109.364 228.963C108.502 229.559 107.603 230.084 106.669 230.537C105.735 230.982 104.8 231.45 103.866 231.938C102.469 232.604 101.134 233.393 99.8769 234.296C98.7556 235.122 97.6272 236.165 96.5059 237.444C95.1988 238.908 93.6855 240.175 92.0137 241.203C91.16 241.745 90.2329 242.161 89.2609 242.439C88.3265 242.698 87.3922 242.871 86.4578 242.942C84.2872 242.942 82.4903 242.569 81.0672 241.821C79.6441 241.074 78.4078 239.708 77.3584 237.724C77.0565 237.157 76.7619 236.804 76.46 236.653C75.9939 236.456 75.503 236.323 75.0009 236.258L69.3156 235.812C67.4469 235.669 65.5422 235.59 63.5944 235.59C61.9767 235.592 60.3617 235.722 58.7644 235.978C57.1184 236.244 55.4869 236.56 53.8769 236.934C53.5462 237.006 53.2084 237.293 52.8706 237.775C52.45 238.359 51.9786 238.905 51.4619 239.406C50.7617 240.073 49.9457 240.606 49.0541 240.98C47.7835 241.477 46.429 241.723 45.065 241.706C43.8287 241.706 42.4991 241.577 41.0759 241.318C39.7446 241.087 38.4571 240.65 37.2594 240.024C35.0988 238.919 32.7927 238.126 30.4097 237.667C28.16 237.257 25.7881 236.876 23.2797 236.546C22.4483 236.437 21.623 236.286 20.8072 236.093C20.0535 235.922 19.3437 235.597 18.7228 235.137C18.1531 234.715 17.678 234.179 17.3284 233.563C16.9451 232.778 16.7507 231.914 16.7606 231.04C16.7606 229.876 16.9116 228.754 17.2134 227.669C17.5153 226.591 17.6806 225.441 17.7166 224.248C17.7166 223.421 17.6591 222.616 17.5512 221.833C17.4324 220.994 17.3556 220.149 17.3212 219.303C17.3212 217.398 17.7741 215.997 18.6725 215.091C19.5709 214.192 20.8791 213.481 22.6041 212.956C23.3704 212.724 24.0921 212.365 24.7387 211.892C25.3319 211.445 25.8939 210.958 26.4206 210.433C26.9554 209.896 27.4435 209.314 27.8797 208.694C28.3325 208.054 28.8356 207.415 29.3962 206.782C29.5081 206.638 29.5688 206.461 29.5687 206.279C29.5687 205.826 29.5472 205.395 29.5112 204.985L29.3962 203.634C29.3962 201.09 29.7916 198.531 30.575 195.943C31.3656 193.356 32.3934 190.84 33.6656 188.361C34.9358 185.896 36.3618 183.514 37.935 181.231C39.5019 178.952 41.0616 176.832 42.5925 174.884C44.672 172.281 46.322 169.362 47.48 166.238C48.5581 163.248 49.1259 159.984 49.1619 156.463C49.1619 154.975 49.09 153.494 48.9391 152.035C48.7883 150.542 48.7139 149.043 48.7162 147.543C48.7162 144.546 49.0541 141.85 49.7225 139.457C50.3981 137.056 51.4475 135.001 52.8706 133.276C54.2937 131.551 56.1481 130.264 58.4266 129.402C60.7194 128.539 63.4506 128.072 66.6275 128C70.4153 128 73.4269 128.747 75.6766 130.25C77.9191 131.745 79.644 133.707 80.8372 136.143C82.0375 138.573 82.8066 141.29 83.1372 144.287C83.4822 147.277 83.669 150.31 83.705 153.379V154.335C83.705 155.873 83.7194 157.239 83.7625 158.432C83.8294 160.858 84.3817 163.245 85.3869 165.454C85.9116 166.611 86.695 167.869 87.7444 169.213C89.5412 171.578 91.3812 173.957 93.25 176.35C95.1187 178.744 96.8222 181.216 98.3531 183.753C99.8912 186.305 101.149 188.964 102.119 191.732C103.097 194.506 103.6 197.496 103.636 200.716C103.646 203.255 103.248 205.778 102.457 208.191V208.184ZM55.3503 149.678C55.8678 149.678 56.2991 149.807 56.6441 150.066C56.9946 150.348 57.2648 150.717 57.4275 151.137C57.6079 151.568 57.7381 152.019 57.8156 152.481C57.8875 152.933 57.9306 153.401 57.9306 153.889C57.9423 154.198 57.8833 154.505 57.7581 154.788C57.635 155.026 57.4637 155.237 57.255 155.406L56.5794 155.967C56.3385 156.171 56.1149 156.394 55.9109 156.635C55.6414 157.055 55.2738 157.402 54.84 157.648C54.3949 157.907 53.9631 158.187 53.5462 158.489C53.1481 158.778 52.7732 159.098 52.425 159.445C52.2509 159.633 52.1167 159.854 52.0302 160.095C51.9437 160.336 51.9069 160.591 51.9219 160.847C51.9219 161.185 52.0872 161.465 52.425 161.688C53.2631 162.216 53.9279 162.978 54.3369 163.88C54.7106 164.743 55.1275 165.583 55.5731 166.41C56.0187 167.229 56.6009 167.919 57.3125 168.487C58.0241 169.048 59.1309 169.328 60.6187 169.328H60.9637C62.4587 169.256 63.8819 168.861 65.2331 168.149C66.5772 167.438 67.9284 166.69 69.2725 165.9C69.5066 165.768 69.752 165.657 70.0056 165.569C70.2667 165.476 70.5117 165.343 70.7316 165.174L74.8284 161.975C74.8997 161.734 74.9573 161.49 75.0009 161.242C75.0446 160.979 75.0829 160.716 75.1159 160.452C75.1285 160.094 75.0279 159.742 74.8284 159.445C74.6446 159.185 74.4187 158.956 74.16 158.77C73.8726 158.574 73.5467 158.441 73.2041 158.382C72.8615 158.313 72.525 158.217 72.1978 158.094C71.3019 157.91 70.4455 157.569 69.6678 157.088C68.8958 156.608 68.0646 156.231 67.1953 155.967C67.0516 155.923 66.9366 155.816 66.8575 155.629C66.7719 155.407 66.6976 155.182 66.6347 154.953C66.5607 154.716 66.5411 154.466 66.5772 154.22C66.6181 154.032 66.598 153.835 66.5197 153.659C66.5197 153.214 66.5556 152.747 66.6347 152.258C66.7123 151.763 66.883 151.287 67.1378 150.856C67.3569 150.457 67.6642 150.113 68.0362 149.85C68.4794 149.591 68.9822 149.453 69.4953 149.447C70.6597 149.447 71.5006 149.879 72.0253 150.741C72.55 151.604 72.8303 152.538 72.8662 153.544C72.8755 153.992 72.7795 154.435 72.5859 154.838C72.3941 155.222 72.2956 155.645 72.2984 156.074C72.2984 156.376 72.3991 156.578 72.5859 156.693C72.8123 156.817 73.0619 156.892 73.3191 156.915C74.1816 156.915 74.735 156.714 75.0009 156.304C75.3034 155.734 75.4567 155.096 75.4465 154.45C75.4465 153.588 75.3747 152.632 75.2309 151.582C75.0887 150.567 74.7828 149.581 74.3253 148.664C73.9064 147.803 73.3143 147.037 72.5859 146.414C71.806 145.795 70.8282 145.478 69.8331 145.523C67.8925 145.523 66.4837 146.005 65.6212 146.982C64.7587 147.953 64.3131 149.412 64.2772 151.359C64.2772 151.92 64.3131 152.481 64.385 153.041C64.4569 153.609 64.5 154.17 64.5 154.73C64.5 154.917 64.4784 155.011 64.4425 155.011C64.3259 154.985 64.2125 154.947 64.1047 154.896C63.8808 154.805 63.6579 154.711 63.4362 154.615C63.1615 154.499 62.8779 154.406 62.5881 154.335C62.1104 154.219 61.6144 154.199 61.1291 154.277C60.8311 154.315 60.531 154.334 60.2306 154.335C59.7059 154.335 59.44 154.242 59.44 154.055C59.44 153.494 59.4112 152.783 59.3322 151.92C59.2603 151.058 59.0734 150.195 58.7716 149.332C58.5206 148.565 58.1415 147.846 57.6503 147.205C57.1975 146.644 56.5291 146.342 55.6306 146.307C55.0271 146.293 54.4419 146.514 53.9991 146.925C53.5377 147.352 53.1407 147.843 52.8203 148.384C52.4759 148.968 52.2648 149.621 52.2022 150.296C52.1419 150.896 52.0676 151.495 51.9794 152.092C52.0082 153.084 52.1776 154.067 52.4825 155.011C52.6694 155.607 52.8778 156.132 53.1006 156.585C53.3234 157.03 53.5894 157.253 53.8912 157.253C54.0709 157.253 54.3225 157.124 54.6172 156.865C54.9191 156.599 55.07 156.362 55.07 156.132C55.07 156.017 55.0125 155.945 54.8975 155.909C54.7888 155.872 54.6747 155.852 54.5597 155.852C54.3009 155.852 54.0709 155.722 53.8841 155.456C53.6914 155.181 53.5412 154.878 53.4384 154.558C53.3205 154.205 53.2079 153.85 53.1006 153.494C52.8768 152.524 53.0175 151.506 53.4959 150.633C53.8337 150.03 54.4519 149.713 55.3503 149.678V149.678ZM43.1028 237.106C44.0012 237.106 44.8853 237.034 45.7478 236.876C46.6016 236.729 47.4206 236.425 48.1628 235.978C48.8745 235.566 49.457 234.964 49.8447 234.238C50.2536 233.396 50.4837 232.479 50.5203 231.543C50.5204 230.875 50.4061 230.211 50.1825 229.581C49.9541 228.938 49.632 228.333 49.2266 227.784C48.783 227.081 48.2956 226.406 47.7675 225.764C47.2391 225.12 46.7518 224.443 46.3084 223.737C45.6094 222.71 44.9146 221.68 44.2241 220.647C43.5556 219.641 42.88 218.577 42.2116 217.448C41.6206 216.492 41.0573 215.519 40.5225 214.53C39.9729 213.521 39.333 212.564 38.6106 211.67C38.1544 211.1 37.6279 210.59 37.0437 210.153C36.4436 209.702 35.71 209.464 34.9594 209.478C34.1763 209.466 33.4173 209.748 32.8319 210.268C32.1627 210.851 31.5425 211.488 30.9775 212.173C30.3147 212.95 29.6016 213.682 28.8428 214.365C28.0522 215.077 27.0459 215.637 25.8097 216.047C24.9731 216.271 24.2035 216.696 23.5672 217.283C23.0425 217.808 22.7766 218.613 22.7766 219.698C22.7766 220.446 22.8341 221.193 22.9491 221.941C23.0569 222.688 23.1359 223.443 23.1719 224.19C23.1719 225.197 23.0281 226.153 22.7191 227.051C22.4291 227.9 22.2786 228.791 22.2734 229.689C22.2734 230.702 22.6328 231.414 23.3372 231.823C24.0559 232.24 24.8537 232.521 25.7522 232.664C26.8806 232.858 27.9444 233.002 28.9578 233.117C29.9641 233.232 30.9559 233.405 31.9334 233.62C32.9037 233.85 33.8741 234.087 34.8516 234.353C35.8219 234.612 36.8569 235.029 37.9422 235.59C38.1578 235.697 38.5028 235.834 38.9484 235.978L40.465 236.481C41.0256 236.675 41.5503 236.826 42.0391 236.934C42.3869 237.027 42.7433 237.085 43.1028 237.106V237.106ZM63.6591 230.364C64.7084 230.364 65.8297 230.257 67.03 230.027C69.4738 229.569 71.8372 228.755 74.045 227.612C75.0728 227.088 76.0497 226.469 76.9631 225.764C77.0539 225.662 77.1312 225.549 77.1931 225.427C77.2647 225.282 77.3201 225.13 77.3584 224.974V224.916C77.5812 224.097 77.7681 223.191 77.919 222.221C78.0748 221.232 78.2066 220.24 78.3144 219.245C78.423 218.251 78.5549 217.258 78.7097 216.27C78.8534 215.299 78.99 214.343 79.0978 213.409C79.2487 212.403 79.4356 211.425 79.6584 210.491C79.8884 209.557 80.1831 208.673 80.5569 207.846C80.9263 207.032 81.4401 206.292 82.0734 205.661C82.8105 204.951 83.6426 204.346 84.5459 203.864V203.749L84.4884 203.584C84.5009 203.203 84.6178 202.832 84.8262 202.513C85.0779 202.1 85.3589 201.706 85.6672 201.334C85.9664 200.956 86.3287 200.633 86.7381 200.378C87.1121 200.154 87.5069 199.966 87.9169 199.817C87.6903 198.914 87.4458 198.016 87.1837 197.122C86.9234 196.233 86.6981 195.334 86.5081 194.427C86.3242 193.279 86.1012 192.138 85.8397 191.006C85.6314 190.127 85.3673 189.263 85.0491 188.418C84.7273 187.595 84.2918 186.821 83.7553 186.118C83.2019 185.371 82.5047 184.465 81.6853 183.423C81.3723 183.073 81.0886 182.698 80.8372 182.302C80.642 181.856 80.53 181.379 80.5066 180.893C80.417 180.401 80.3043 179.915 80.1687 179.434C79.6639 177.614 79.0836 175.815 78.4294 174.043C78.0841 173.097 77.6709 172.177 77.1931 171.29C76.8113 170.58 76.3988 169.887 75.9569 169.213C75.5831 168.653 75.1878 168.372 74.7781 168.372C73.8797 168.372 72.8087 168.732 71.5725 169.443C70.3434 170.155 69.0281 170.938 67.6481 171.801C66.2609 172.663 64.9169 173.468 63.6016 174.216C62.2934 174.963 61.1147 175.315 60.0653 175.279C58.9454 175.279 57.8578 174.904 56.9747 174.216C56.0228 173.49 55.1549 172.661 54.3872 171.743C53.6037 170.809 52.9497 170.004 52.425 169.328C51.9003 168.653 51.5122 168.279 51.2462 168.207C50.9516 168.207 50.7791 168.43 50.7431 168.875C50.7031 169.38 50.6839 169.886 50.6856 170.392V171.348C50.6856 171.578 50.6497 171.722 50.5706 171.801C50.1609 172.663 49.7081 173.504 49.2266 174.323C48.7378 175.15 48.2562 175.991 47.7675 176.853C46.7993 178.511 46.2584 180.383 46.1934 182.302C46.1934 182.862 46.2294 183.423 46.3084 183.983C46.3803 184.544 46.5672 185.09 46.8691 185.615L46.7541 185.831C46.4655 186.231 46.1459 186.609 45.7981 186.959C45.444 187.32 45.1262 187.715 44.8494 188.138C43.4745 190.169 42.4831 192.434 41.9241 194.822C41.3634 197.216 41.0616 199.652 41.0256 202.118C41.0256 202.757 41.0687 203.397 41.1406 204.029C41.2125 204.669 41.2556 205.302 41.2556 205.941C41.2534 206.149 41.2342 206.355 41.1981 206.559C41.162 206.763 41.1428 206.97 41.1406 207.177C41.9396 207.268 42.7082 207.535 43.3903 207.961C44.2528 208.45 45.1872 209.068 46.1934 209.815C47.1997 210.563 48.1628 211.425 49.0612 212.403C49.9597 213.373 50.815 214.322 51.6416 215.263C52.4681 216.198 53.0647 217.132 53.4384 218.067C53.8122 219.001 54.0566 219.77 54.1644 220.367C54.1837 220.801 54.114 221.235 53.9595 221.642C53.8049 222.048 53.5689 222.419 53.2659 222.731C52.6214 223.36 51.8594 223.856 51.0234 224.19C51.6631 225.312 52.4466 226.268 53.3809 227.051C54.3153 227.842 55.3287 228.474 56.4141 228.963C57.4994 229.452 58.6781 229.804 59.9503 230.027C61.2225 230.257 62.4659 230.364 63.6591 230.364V230.364ZM86.1775 238.343C86.9609 238.343 87.73 238.228 88.4775 238.005C89.6102 237.68 90.6882 237.188 91.6759 236.546C92.6534 235.906 93.5447 235.122 94.3712 234.181C96.3238 231.928 98.7126 230.094 101.393 228.79L103.248 227.949C103.884 227.672 104.501 227.353 105.095 226.993C105.524 226.722 105.922 226.404 106.281 226.045C106.462 225.87 106.605 225.66 106.701 225.427C106.798 225.195 106.845 224.945 106.842 224.693C106.842 224.404 106.783 224.118 106.669 223.853C106.535 223.553 106.366 223.271 106.166 223.012C105.654 222.298 105.167 221.567 104.707 220.819C104.291 220.139 103.932 219.425 103.636 218.685L102.737 216.442C102.413 215.619 102.149 214.773 101.947 213.912C101.869 213.646 101.737 213.399 101.559 213.186C101.197 212.646 100.704 212.207 100.125 211.912C99.5466 211.616 98.9019 211.473 98.2525 211.497C97.5822 211.495 96.9229 211.668 96.3406 212L94.4287 213.071C93.7633 213.44 93.0899 213.795 92.4091 214.135C91.7469 214.468 91.0156 214.641 90.2744 214.638C89.6116 214.667 88.9584 214.472 88.42 214.085C87.9033 213.674 87.4815 213.157 87.1837 212.568C86.8642 211.969 86.5833 211.349 86.3428 210.714L85.6672 208.859C85.3745 209.34 85.0376 209.792 84.6609 210.211C84.2761 210.639 83.9718 211.133 83.7625 211.67C83.2737 212.791 82.9719 214.042 82.8641 215.429C82.6772 217.599 82.4328 219.712 82.1309 221.775C81.8234 223.879 81.318 225.948 80.6215 227.957C80.4229 228.599 80.2715 229.255 80.1687 229.919C80.0571 230.607 79.9804 231.3 79.9387 231.996C79.9387 233.829 80.5066 235.345 81.6278 236.546C82.7491 237.739 84.2656 238.343 86.1775 238.343V238.343Z" fill="#17B3D5"/>
<defs>
<clipPath id="clip0">
<rect width="98" height="110" fill="white" transform="translate(142 130)"/>
</clipPath>
</defs>
</svg>
